<svg width="375" height="394" viewBox="0 0 375 394" fill="none" xmlns="http://www.w3.org/2000/svg">
<path d="M198.937 4.688L219.632 8.91438C252.991 15.7272 284.059 30.9437 309.892 53.1224L344.065 82.4604C358.941 95.2321 371.858 110.122 382.402 126.652L415.273 178.185C433.211 206.306 440.939 239.738 437.163 272.879L432.332 315.277C427.974 353.523 399.181 384.455 361.345 391.537C345.741 394.457 329.638 393.087 314.752 387.573L250.889 363.914C225.236 354.411 197.906 350.271 170.589 351.751L149.134 352.914C139.07 353.459 129.087 355.018 119.337 357.567L76.8594 368.673C52.1404 375.135 25.8442 368.119 7.6306 350.201C-1.62025 341.1 -8.26071 329.684 -11.5986 317.144L-33.9711 233.09C-47.9201 180.684 -37.7132 124.786 -6.14339 80.692C17.8982 47.1125 52.6693 22.7324 92.4323 11.5747L104.884 8.0807C135.519 -0.515617 167.763 -1.67872 198.937 4.688Z" fill="#940707"/>
</svg>
