<svg width="256" height="517" viewBox="0 0 256 517" fill="none" xmlns="http://www.w3.org/2000/svg">
<path d="M105.445 31.9499L133.493 25.1316C156.929 19.4343 178.996 9.12454 198.403 -5.19566L217.072 -18.9702C219.352 -20.6531 221.784 -22.1205 224.336 -23.3536C246.883 -34.2469 273.998 -25.0035 285.197 -2.60689L345.3 117.6C356.642 140.283 363.118 165.085 364.313 190.417L374.351 403.095C376.768 454.313 342.946 500.212 293.31 513.072C276.995 517.299 259.919 517.661 243.44 514.13L150.61 494.238C122.25 488.161 95.6679 475.643 72.9185 457.652C32.4124 425.62 6.7657 378.417 1.93183 327.002L1.58835 323.349C-0.456413 301.6 1.11708 279.663 6.24489 258.428L35.0132 139.298C36.6652 132.457 37.5 125.44 37.5 118.402C37.5 96.5741 45.5257 75.4956 60.0496 59.2004C72.0648 45.72 87.8979 36.2154 105.445 31.9499Z" fill="#C4082A"/>
</svg>
